<svg id="Слой_1" data-name="Слой 1" xmlns="http://www.w3.org/2000/svg" xmlns:xlink="http://www.w3.org/1999/xlink" viewBox="0 0 458 190"><defs><style>.cls-1{fill:url(#Безымянный_градиент_11);}.cls-2{fill:#fff;}</style><linearGradient id="Безымянный_градиент_11" x1="4.61" y1="153.3" x2="146.29" y2="11.62" gradientUnits="userSpaceOnUse"><stop offset="0" stop-color="#0d65fd"/><stop offset="1" stop-color="#3ba6f5"/></linearGradient></defs><title>Безымянный-1</title><path d="M177.74,80.46V6.75h49.9V19.31H192V36.65h32.39V49.11H192V67.9h36.3V80.46Z"/><path d="M233.61,65.51c0-9.14,5.48-14.53,14.67-15.88l18.59-2.81V43.71c0-4.47-2.74-7.16-8.7-7.16-5.58,0-9.1,2.28-9.59,6.85H235.66c.78-11.42,9.69-17.86,22.8-17.86,13.6,0,21.62,7.16,21.62,18.38V80.46H267.46l-.49-8.2c-3,5.81-8.9,9.55-16.34,9.55C240.46,81.81,233.61,75,233.61,65.51Zm33.26-4.67V56.58l-13.69,2c-4.21.63-6.36,2.5-6.36,6.23s2.93,6.13,7.92,6.13C261.39,70.91,266.87,66.76,266.87,60.84Z"/><path d="M287.22,63.43h13.11c.79,5.3,4.6,8,10.18,8,5.19,0,8.71-2.08,8.71-5.92,0-3.32-2.35-5.29-11.45-7-12.92-2.28-18.88-6.64-18.88-16.29,0-10.07,8.7-16.72,21-16.72,13,0,20.94,6.33,21.72,17.34H318.83c-.59-4.67-4-7.16-9.1-7.16-4.7,0-7.73,2.07-7.73,5.6,0,3.32,2.54,5.09,11.15,6.54,13.7,2.29,19.47,7,19.47,16.3,0,10.59-8.61,17.65-22.21,17.65C296.32,81.81,288.1,75.06,287.22,63.43Z"/><path d="M346.22,98.11l6.56-18.17-19.18-53h14.48L360,64.26l11.54-37.37h14L360.31,98.11Z"/><path d="M175.1,141.72h14.38c1,8.83,6.85,13,15.65,13,8.13,0,13-3.11,13-9.14v-.41c0-5.5-3.72-8.1-17.22-10.8-16.93-3.32-23.49-10.17-23.49-21.7V112c0-13,10.57-21.49,26.23-21.49s26.41,8.2,27.59,23.46H216.88c-.79-7.57-5.68-11.31-13.51-11.31s-11.64,3.74-11.64,8.93v.2c0,4.68,2.05,7.58,15.75,10.07,16.64,3,25,9.35,25,21.7v.62c0,13.71-11.25,22.74-27.69,22.74C187,167,176,157.61,175.1,141.72Z"/><path d="M240.06,183.25V112h12.82l.39,8.2a17.88,17.88,0,0,1,16.24-9.55c13.51,0,21.63,11.63,21.63,27.41v1.35c0,15.88-8.32,27.51-21.92,27.51A17.31,17.31,0,0,1,253.86,158v25.23Zm37.18-43.81v-1.35c0-10.49-4.11-16.3-11.93-16.3s-11.94,5.81-11.94,16.3v1.35c0,10.48,4.21,16.3,11.94,16.3S277.24,149.92,277.24,139.44Z"/><path d="M297.5,139.44v-1.35c0-16.3,10.07-27.41,26-27.41,17.22,0,25.74,12.87,24.86,31.56H311.49c.68,9.14,4.69,13.6,12,13.6,6.17,0,9.69-3.11,11-7.27h13.6C345.64,159.89,336.73,167,323.52,167,307.28,167,297.5,156,297.5,139.44Zm36.88-6.75c-.58-6.75-4.11-10.9-11-10.9s-10.56,3.53-11.74,10.9Z"/><path d="M354.05,150.65c0-9.13,5.48-14.53,14.68-15.88L387.32,132v-3.11c0-4.46-2.74-7.16-8.71-7.16-5.58,0-9.1,2.28-9.59,6.85H356.1c.79-11.42,9.69-17.86,22.8-17.86,13.6,0,21.63,7.17,21.63,18.38V165.6H387.9l-.49-8.2c-3,5.81-8.9,9.55-16.34,9.55C360.9,167,354.05,160.1,354.05,150.65ZM387.32,146v-4.26l-13.7,2c-4.21.62-6.36,2.49-6.36,6.22s2.93,6.13,7.92,6.13C381.84,156.05,387.32,151.9,387.32,146Z"/><path d="M423.62,146.5v19.1h-13.7V88.78h13.7v42.46L441.52,112h16.05L438.1,132.59l20.25,33H443.09l-14.68-24.19Z"/><path class="cls-1" d="M157.91,39.68v78.55a39.69,39.69,0,0,1-39.68,39.68H79.55L48.11,188.75c-2.8,1.68-6,1.65-8,0a5.83,5.83,0,0,1-1.85-3.09V157.88A39.68,39.68,0,0,1,0,118.23V39.68A39.67,39.67,0,0,1,39.68,0h78.55A39.68,39.68,0,0,1,157.91,39.68Z"/><rect class="cls-2" x="32.07" y="30.54" width="93.76" height="16.99" rx="8.5"/><rect class="cls-2" x="32.07" y="65.11" width="73.25" height="16.99" rx="8.5"/><rect class="cls-2" x="32.07" y="103.2" width="50.39" height="16.99" rx="8.5"/></svg>