<svg id="Слой_1" data-name="Слой 1" xmlns="http://www.w3.org/2000/svg" xmlns:xlink="http://www.w3.org/1999/xlink" viewBox="0 0 399.98 38.51"><defs><style>.cls-1{fill:none;}.cls-2{fill:#428ecc;}.cls-3{clip-path:url(#clip-path);}.cls-4{fill:url(#Безымянный_градиент_40);}.cls-5{fill:url(#Безымянный_градиент_40-2);}.cls-6{fill:url(#Безымянный_градиент_40-3);}.cls-7{fill:url(#Безымянный_градиент_40-4);}.cls-8{fill:url(#Безымянный_градиент_40-5);}.cls-9{fill:url(#Безымянный_градиент_40-6);}.cls-10{fill:url(#Безымянный_градиент_40-7);}.cls-11{fill:url(#Безымянный_градиент_40-8);}.cls-12{fill:url(#Безымянный_градиент_40-9);}.cls-13{fill:url(#Безымянный_градиент_40-10);}.cls-14{fill:url(#Безымянный_градиент_40-11);}</style><clipPath id="clip-path"><path class="cls-1" d="M295.11,38.51H104.87a50.78,50.78,0,0,1,7.9-7.39c18.07-13.82,50.37-23,87.22-23C243.07,8.09,280,20.68,295.11,38.51Z"/></clipPath><linearGradient id="Безымянный_градиент_40" x1="16.82" y1="38.14" x2="16.82" y2="0.54" gradientUnits="userSpaceOnUse"><stop offset="0" stop-color="#fbc02d"/><stop offset="1" stop-color="#ffec3d"/></linearGradient><linearGradient id="Безымянный_градиент_40-2" x1="55.87" y1="38.51" x2="55.87" y2="0.54" xlink:href="#Безымянный_градиент_40"/><linearGradient id="Безымянный_градиент_40-3" x1="92.8" y1="38.14" x2="92.8" y2="0.54" xlink:href="#Безымянный_градиент_40"/><linearGradient id="Безымянный_градиент_40-4" x1="127.97" y1="38.14" x2="127.97" y2="0.54" xlink:href="#Безымянный_градиент_40"/><linearGradient id="Безымянный_градиент_40-5" x1="166" y1="38.51" x2="166" y2="0" xlink:href="#Безымянный_градиент_40"/><linearGradient id="Безымянный_градиент_40-6" x1="200.95" y1="38.14" x2="200.95" y2="0.54" xlink:href="#Безымянный_градиент_40"/><linearGradient id="Безымянный_градиент_40-7" x1="232.37" y1="38.14" x2="232.37" y2="0.54" xlink:href="#Безымянный_градиент_40"/><linearGradient id="Безымянный_градиент_40-8" x1="268.53" y1="38.51" x2="268.53" y2="0" xlink:href="#Безымянный_градиент_40"/><linearGradient id="Безымянный_градиент_40-9" x1="304.63" y1="38.14" x2="304.63" y2="0.54" xlink:href="#Безымянный_градиент_40"/><linearGradient id="Безымянный_градиент_40-10" x1="343.95" y1="38.14" x2="343.95" y2="0.54" xlink:href="#Безымянный_градиент_40"/><linearGradient id="Безымянный_градиент_40-11" x1="383.48" y1="38.14" x2="383.48" y2="0.54" xlink:href="#Безымянный_градиент_40"/></defs><title>Безымянный-1_Монтажная область 1</title><path class="cls-2" d="M33.64,38.14H24.48L9.16,15V38.14H0V.54H9.16l15.32,23.3V.54h9.16Z"/><path class="cls-2" d="M49.28.54V23a7.43,7.43,0,0,0,1.66,5.2,6.29,6.29,0,0,0,4.88,1.82,6.44,6.44,0,0,0,4.92-1.82A7.27,7.27,0,0,0,62.46,23V.54h9.16V23a16,16,0,0,1-2.14,8.52,13.76,13.76,0,0,1-5.76,5.25,18.1,18.1,0,0,1-8.07,1.76,17.66,17.66,0,0,1-7.95-1.74,12.92,12.92,0,0,1-5.54-5.25,16.69,16.69,0,0,1-2-8.54V.54Z"/><path class="cls-2" d="M97.22,38.14,89.4,23.94H87.21v14.2H78.05V.54H93.42A16.88,16.88,0,0,1,101,2.09a10.72,10.72,0,0,1,4.69,4.26,11.92,11.92,0,0,1,1.55,6,11.2,11.2,0,0,1-2.12,6.7,11.4,11.4,0,0,1-6.24,4.18l8.68,14.89Zm-10-20.68h5.67a5.21,5.21,0,0,0,3.78-1.23,4.64,4.64,0,0,0,1.26-3.48,4.53,4.53,0,0,0-1.26-3.38,5.21,5.21,0,0,0-3.78-1.23H87.21Z"/><path class="cls-2" d="M141,22.09a9.23,9.23,0,0,1,2,5.82,9.23,9.23,0,0,1-3.3,7.47c-2.19,1.84-5.26,2.76-9.18,2.76H113V.54H129.9q5.73,0,9,2.62a8.67,8.67,0,0,1,3.24,7.12,8.6,8.6,0,0,1-1.74,5.52,9.05,9.05,0,0,1-4.63,3.06A8.79,8.79,0,0,1,141,22.09Zm-18.86-6.34h6a5.29,5.29,0,0,0,3.45-1,3.55,3.55,0,0,0,1.21-2.92,3.63,3.63,0,0,0-1.21-2.95,5.18,5.18,0,0,0-3.45-1h-6Zm10.31,14a3.69,3.69,0,0,0,1.26-3,3.9,3.9,0,0,0-1.31-3.11,5.39,5.39,0,0,0-3.62-1.13h-6.64v8.31h6.75A5.42,5.42,0,0,0,132.44,29.7Z"/><path class="cls-2" d="M156.33,36.05a18.45,18.45,0,0,1-7-6.88,19.18,19.18,0,0,1-2.6-9.94,19,19,0,0,1,2.6-9.91,18.54,18.54,0,0,1,7-6.86,20.45,20.45,0,0,1,19.45,0,18.2,18.2,0,0,1,7,6.86,19.37,19.37,0,0,1,2.55,9.91,19.36,19.36,0,0,1-2.58,9.94,18.25,18.25,0,0,1-7,6.88,20.39,20.39,0,0,1-19.42,0Zm16.93-8.89A11.4,11.4,0,0,0,176,19.23a11.37,11.37,0,0,0-2.71-8,9.25,9.25,0,0,0-7.2-3,9.38,9.38,0,0,0-7.26,2.95,11.3,11.3,0,0,0-2.71,8,11.32,11.32,0,0,0,2.71,8,10.24,10.24,0,0,0,14.46,0Z"/><path class="cls-2" d="M199.53,31.07h12v7.07H190.37V.54h9.16Z"/><path class="cls-2" d="M239.33,31.5h-14l-2.25,6.64h-9.59L227.07.54h10.6l13.61,37.6h-9.7ZM237,24.43l-4.66-13.77-4.61,13.77Z"/><path class="cls-2" d="M261.62,37.18a12.17,12.17,0,0,1-5.23-4,10.83,10.83,0,0,1-2.06-6.32h9.75a4.36,4.36,0,0,0,4.66,4.29,5.08,5.08,0,0,0,3.22-.94,3.15,3.15,0,0,0,1.17-2.6,3.07,3.07,0,0,0-.93-2.3,7.56,7.56,0,0,0-2.31-1.5A35.15,35.15,0,0,0,266,22.5a42.49,42.49,0,0,1-5.95-2.25,11.08,11.08,0,0,1-4-3.32,9.27,9.27,0,0,1-1.66-5.74A9.87,9.87,0,0,1,258.24,3a15.65,15.65,0,0,1,9.91-3q6.21,0,10,3a10.66,10.66,0,0,1,4.07,8.28h-9.91A3.9,3.9,0,0,0,271,8.38a4.74,4.74,0,0,0-3.16-1,3.94,3.94,0,0,0-2.68.88,3.19,3.19,0,0,0-1,2.55,3.15,3.15,0,0,0,1.72,2.84,27.63,27.63,0,0,0,5.36,2.19,49.08,49.08,0,0,1,5.91,2.36,11.27,11.27,0,0,1,3.94,3.27,8.71,8.71,0,0,1,1.66,5.51,10.8,10.8,0,0,1-1.63,5.84A11.49,11.49,0,0,1,276.35,37,16.18,16.18,0,0,1,269,38.51,19.35,19.35,0,0,1,261.62,37.18Z"/><path class="cls-2" d="M320.91.54v37.6h-9.16V22.66H297.51V38.14h-9.16V.54h9.16V15.27h14.24V.54Z"/><path class="cls-2" d="M350.91,31.5h-14l-2.25,6.64H325L338.65.54h10.6l13.61,37.6h-9.7Zm-2.36-7.07-4.66-13.77-4.6,13.77Z"/><path class="cls-2" d="M388.78,38.14,376.14,21.53V38.14H367V.54h9.16V17L388.68.54h10.76L384.87,19,400,38.14Z"/><g class="cls-3"><path class="cls-4" d="M33.64,38.14H24.48L9.16,15V38.14H0V.54H9.16l15.32,23.3V.54h9.16Z"/><path class="cls-5" d="M49.28.54V23a7.43,7.43,0,0,0,1.66,5.2,6.29,6.29,0,0,0,4.88,1.82,6.44,6.44,0,0,0,4.92-1.82A7.27,7.27,0,0,0,62.46,23V.54h9.16V23a16,16,0,0,1-2.14,8.52,13.76,13.76,0,0,1-5.76,5.25,18.1,18.1,0,0,1-8.07,1.76,17.66,17.66,0,0,1-7.95-1.74,12.92,12.92,0,0,1-5.54-5.25,16.69,16.69,0,0,1-2-8.54V.54Z"/><path class="cls-6" d="M97.22,38.14,89.4,23.94H87.21v14.2H78.05V.54H93.42A16.88,16.88,0,0,1,101,2.09a10.72,10.72,0,0,1,4.69,4.26,11.92,11.92,0,0,1,1.55,6,11.2,11.2,0,0,1-2.12,6.7,11.4,11.4,0,0,1-6.24,4.18l8.68,14.89Zm-10-20.68h5.67a5.21,5.21,0,0,0,3.78-1.23,4.64,4.64,0,0,0,1.26-3.48,4.53,4.53,0,0,0-1.26-3.38,5.21,5.21,0,0,0-3.78-1.23H87.21Z"/><path class="cls-7" d="M141,22.09a9.23,9.23,0,0,1,2,5.82,9.23,9.23,0,0,1-3.3,7.47c-2.19,1.84-5.26,2.76-9.18,2.76H113V.54H129.9q5.73,0,9,2.62a8.67,8.67,0,0,1,3.24,7.12,8.6,8.6,0,0,1-1.74,5.52,9.05,9.05,0,0,1-4.63,3.06A8.79,8.79,0,0,1,141,22.09Zm-18.86-6.34h6a5.29,5.29,0,0,0,3.45-1,3.55,3.55,0,0,0,1.21-2.92,3.63,3.63,0,0,0-1.21-2.95,5.18,5.18,0,0,0-3.45-1h-6Zm10.31,14a3.69,3.69,0,0,0,1.26-3,3.9,3.9,0,0,0-1.31-3.11,5.39,5.39,0,0,0-3.62-1.13h-6.64v8.31h6.75A5.42,5.42,0,0,0,132.44,29.7Z"/><path class="cls-8" d="M156.33,36.05a18.45,18.45,0,0,1-7-6.88,19.18,19.18,0,0,1-2.6-9.94,19,19,0,0,1,2.6-9.91,18.54,18.54,0,0,1,7-6.86,20.45,20.45,0,0,1,19.45,0,18.2,18.2,0,0,1,7,6.86,19.37,19.37,0,0,1,2.55,9.91,19.36,19.36,0,0,1-2.58,9.94,18.25,18.25,0,0,1-7,6.88,20.39,20.39,0,0,1-19.42,0Zm16.93-8.89A11.4,11.4,0,0,0,176,19.23a11.37,11.37,0,0,0-2.71-8,9.25,9.25,0,0,0-7.2-3,9.38,9.38,0,0,0-7.26,2.95,11.3,11.3,0,0,0-2.71,8,11.32,11.32,0,0,0,2.71,8,10.24,10.24,0,0,0,14.46,0Z"/><path class="cls-9" d="M199.53,31.07h12v7.07H190.37V.54h9.16Z"/><path class="cls-10" d="M239.33,31.5h-14l-2.25,6.64h-9.59L227.07.54h10.6l13.61,37.6h-9.7ZM237,24.43l-4.66-13.77-4.61,13.77Z"/><path class="cls-11" d="M261.62,37.18a12.17,12.17,0,0,1-5.23-4,10.83,10.83,0,0,1-2.06-6.32h9.75a4.36,4.36,0,0,0,4.66,4.29,5.08,5.08,0,0,0,3.22-.94,3.15,3.15,0,0,0,1.17-2.6,3.07,3.07,0,0,0-.93-2.3,7.56,7.56,0,0,0-2.31-1.5A35.15,35.15,0,0,0,266,22.5a42.49,42.49,0,0,1-5.95-2.25,11.08,11.08,0,0,1-4-3.32,9.27,9.27,0,0,1-1.66-5.74A9.87,9.87,0,0,1,258.24,3a15.65,15.65,0,0,1,9.91-3q6.21,0,10,3a10.66,10.66,0,0,1,4.07,8.28h-9.91A3.9,3.9,0,0,0,271,8.38a4.74,4.74,0,0,0-3.16-1,3.94,3.94,0,0,0-2.68.88,3.19,3.19,0,0,0-1,2.55,3.15,3.15,0,0,0,1.72,2.84,27.63,27.63,0,0,0,5.36,2.19,49.08,49.08,0,0,1,5.91,2.36,11.27,11.27,0,0,1,3.94,3.27,8.71,8.71,0,0,1,1.66,5.51,10.8,10.8,0,0,1-1.63,5.84A11.49,11.49,0,0,1,276.35,37,16.18,16.18,0,0,1,269,38.51,19.35,19.35,0,0,1,261.62,37.18Z"/><path class="cls-12" d="M320.91.54v37.6h-9.16V22.66H297.51V38.14h-9.16V.54h9.16V15.27h14.24V.54Z"/><path class="cls-13" d="M350.91,31.5h-14l-2.25,6.64H325L338.65.54h10.6l13.61,37.6h-9.7Zm-2.36-7.07-4.66-13.77-4.6,13.77Z"/><path class="cls-14" d="M388.78,38.14,376.14,21.53V38.14H367V.54h9.16V17L388.68.54h10.76L384.87,19,400,38.14Z"/></g></svg>